<svg width="25" height="25" viewBox="0 0 25 25" fill="none" xmlns="http://www.w3.org/2000/svg">
<path d="M9.96867 5.39583C10.1666 5.39583 10.3645 5.46875 10.5208 5.625C10.8228 5.92708 10.8228 6.42708 10.5208 6.72917L4.74992 12.5L10.5208 18.2708C10.8228 18.5729 10.8228 19.0729 10.5208 19.375C10.2187 19.6771 9.71867 19.6771 9.41659 19.375L3.09367 13.0521C2.79158 12.75 2.79158 12.25 3.09367 11.9479L9.41659 5.625C9.57284 5.46875 9.77075 5.39583 9.96867 5.39583Z" fill="#2A2A2A"/>
<path d="M3.823 11.7188L21.3542 11.7188C21.7813 11.7188 22.1355 12.0729 22.1355 12.5C22.1355 12.9271 21.7813 13.2812 21.3542 13.2812L3.823 13.2813C3.39592 13.2813 3.04175 12.9271 3.04175 12.5C3.04175 12.0729 3.39592 11.7188 3.823 11.7188Z" fill="#2A2A2A"/>
</svg>
