<svg width="122" height="122" viewBox="0 0 122 122" fill="none" xmlns="http://www.w3.org/2000/svg">
<path d="M26.8692 71.9955L53.4556 72.2476C53.7738 72.2537 54.0852 72.3403 54.3608 72.4995C54.6364 72.6586 54.8671 72.8849 55.0315 73.1574L68.5431 96.0559C68.7507 96.4023 69.0656 96.6716 69.44 96.8231C69.8145 96.9746 70.228 97 70.6182 96.8955C71.0083 96.791 71.3538 96.5622 71.6023 96.2438C71.8508 95.9253 71.9888 95.5347 71.9955 95.1308L72.2476 68.5444C72.2537 68.2262 72.3404 67.9148 72.4995 67.6392C72.6586 67.3636 72.885 67.1329 73.1575 66.9685L96.0559 53.4569C96.4023 53.2493 96.6717 52.9344 96.8232 52.56C96.9747 52.1855 97.0001 51.772 96.8955 51.3818C96.791 50.9917 96.5622 50.6462 96.2438 50.3977C95.9254 50.1492 95.5347 50.0112 95.1308 50.0045L68.5444 49.7524C68.2262 49.7463 67.9148 49.6596 67.6392 49.5005C67.3636 49.3414 67.1329 49.115 66.9685 48.8425L53.457 25.9441C53.2493 25.5977 52.9344 25.3283 52.56 25.1768C52.1856 25.0253 51.772 24.9999 51.3818 25.1045C50.9917 25.209 50.6462 25.4378 50.3977 25.7562C50.1492 26.0746 50.0112 26.4653 50.0045 26.8692L49.7524 53.4556C49.7463 53.7737 49.6597 54.0852 49.5005 54.3608C49.3414 54.6364 49.115 54.8671 48.8426 55.0315L25.9441 68.543C25.5977 68.7507 25.3284 69.0656 25.1769 69.44C25.0254 69.8144 25 70.228 25.1045 70.6182C25.209 71.0083 25.4378 71.3538 25.7562 71.6023C26.0746 71.8508 26.4653 71.9888 26.8692 71.9955Z" fill="#006ED3" fill-opacity="0.6" stroke="#006ED3" stroke-opacity="0.6" stroke-width="0.125" stroke-linecap="round" stroke-linejoin="round"/>
</svg>
