<svg width="114" height="114" viewBox="0 0 114 114" fill="none" xmlns="http://www.w3.org/2000/svg">
<g clip-path="url(#clip0_148_1864)">
<path d="M19.373 40.6987L97.6416 52.5894L91.6963 91.7237L13.4277 79.833L19.373 40.6987Z" fill="#CFD8DC"/>
<path d="M13.4277 79.833L91.6963 91.7237L90.4447 99.9625L12.1761 88.0718L13.4277 79.833Z" fill="#B0BEC5"/>
<path d="M63.1211 57.8813L87.8375 61.6363L82.2051 98.7109L57.4887 94.9559L63.1211 57.8813Z" fill="#455A64"/>
<path d="M26.0469 52.249L54.8827 56.6298L51.4406 79.2865L22.6048 74.9057L26.0469 52.249Z" fill="#E3F2FD"/>
<path d="M27.7937 54.6216L52.5101 58.3766L49.6939 76.9139L24.9775 73.1589L27.7937 54.6216Z" fill="#009FF5"/>
<path d="M79.7164 80.4211C79.0985 80.3272 78.6239 80.6766 78.5301 81.2945L77.9042 85.4139C77.8104 86.0318 78.1597 86.5063 78.7776 86.6002C79.3955 86.6941 79.8701 86.3447 79.9639 85.7268L80.5898 81.6074C80.6836 80.9895 80.3343 80.515 79.7164 80.4211Z" fill="#90A4AE"/>
<path d="M57.5682 52.8233C60.9808 53.3418 64.1676 50.9956 64.6861 47.5829C65.2045 44.1703 62.8583 40.9836 59.4457 40.4651C56.0331 39.9467 52.8463 42.2928 52.3279 45.7055C51.8094 49.1181 54.1556 52.3049 57.5682 52.8233Z" fill="#009FF5"/>
<path d="M82.2843 56.5783C85.6969 57.0968 88.8837 54.7506 89.4021 51.3379C89.9206 47.9253 87.5744 44.7386 84.1618 44.2201C80.7491 43.7017 77.5624 46.0478 77.0439 49.4605C76.5255 52.8731 78.8717 56.0599 82.2843 56.5783Z" fill="#009FF5"/>
<path d="M32.8514 49.0684C36.2641 49.5869 39.4508 47.2407 39.9693 43.8281C40.4877 40.4154 38.1415 37.2287 34.7289 36.7102C31.3163 36.1918 28.1295 38.538 27.6111 41.9506C27.0926 45.3632 29.4388 48.55 32.8514 49.0684Z" fill="#009FF5"/>
<path d="M95.5298 24.8749L29.6194 14.8617C27.3537 14.5175 25.2184 16.0896 24.8742 18.3552L23.9354 24.5343L98.0846 35.7992L99.0234 29.6201C99.3676 27.3544 97.7955 25.2191 95.5298 24.8749ZM54.8309 29.228L67.1891 31.1055L64.6858 47.5831L52.3276 45.7056L54.8309 29.228ZM87.7861 34.2346L77.4876 32.6701L77.044 49.4606L89.4022 51.3381L87.7861 34.2346ZM34.2339 26.0989L44.5324 27.6635L39.9694 43.8282L27.6112 41.9507L34.2339 26.0989Z" fill="#009FF5"/>
<path d="M69.9269 54.7009C73.3395 55.2193 76.5263 52.8731 77.0447 49.4605C77.5632 46.0479 75.217 42.8611 71.8043 42.3427C68.3917 41.8242 65.205 44.1704 64.6865 47.583C64.1681 50.9957 66.5142 54.1824 69.9269 54.7009Z" fill="#FFA000"/>
<path d="M101.761 53.2154C101.229 56.7169 98.1447 58.9878 94.6432 58.4558C91.1417 57.9239 88.8709 54.8395 89.4028 51.338C89.9348 47.8365 93.0192 45.5657 96.5207 46.0976L101.761 53.2154Z" fill="#FFA000"/>
<path d="M45.2108 50.9459C48.6234 51.4643 51.8102 49.1181 52.3286 45.7055C52.8471 42.2929 50.5009 39.1061 47.0883 38.5877C43.6757 38.0692 40.4889 40.4154 39.9704 43.828C39.452 47.2406 41.7982 50.4274 45.2108 50.9459Z" fill="#FFA000"/>
<path d="M15.2536 40.0731C14.7217 43.5746 16.9925 46.659 20.494 47.191C23.9955 47.7229 27.0799 45.4521 27.6118 41.9506C28.1438 38.4491 25.873 35.3647 22.3715 34.8328L15.2536 40.0731Z" fill="#FFA000"/>
<path d="M77.4881 32.6697L67.1896 31.1051L64.6863 47.5827L77.0445 49.4602L77.4881 32.6697ZM98.0851 35.7988L87.7866 34.2342L89.4027 51.3377L101.761 53.2151L98.0851 35.7988ZM44.5329 27.6631L54.8314 29.2276L52.3281 45.7052L39.9699 43.8278L44.5329 27.6631ZM23.9359 24.534L34.2344 26.0985L27.6117 41.9503L15.2535 40.0728L23.9359 24.534Z" fill="#FFA000"/>
</g>
<defs>
<clipPath id="clip0_148_1864">
<rect width="100" height="100" fill="white" transform="translate(15.0195) rotate(8.6384)"/>
</clipPath>
</defs>
</svg>
