<svg width="105" height="106" viewBox="0 0 105 106" fill="none" xmlns="http://www.w3.org/2000/svg">
<g clip-path="url(#clip0_148_1889)">
<path d="M85.5994 17.6686C85.2696 16.9063 84.7008 16.2718 83.9789 15.8609C83.257 15.45 82.4211 15.2849 81.5972 15.3905L81.5301 15.3523L7.33003 35.7232L7.29214 35.7902C6.52975 36.1201 5.89527 36.6888 5.48435 37.4107C5.07344 38.1327 4.90837 38.9686 5.01404 39.7925L4.9759 39.8593L18.1169 87.7247L18.1838 87.763C18.5137 88.5253 19.0824 89.1598 19.8044 89.5708C20.5263 89.9817 21.3622 90.1467 22.1862 90.0411L22.2529 90.079L96.4528 69.7082L96.491 69.6411C97.2535 69.3115 97.8881 68.7428 98.299 68.0208C98.7099 67.2989 98.8749 66.4629 98.769 65.639L98.8072 65.5718L85.6663 17.7066L85.5994 17.6686Z" fill="#C2CCCE"/>
<path d="M6.94434 47.0296L87.6345 24.8769L91.4316 38.7074L10.7414 60.8601L6.94434 47.0296Z" fill="#009FF5"/>
<path d="M83.7895 50.9105L24.0822 67.3025C20.3816 68.3185 18.2052 72.1421 19.2211 75.8426C20.2371 79.5433 24.0607 81.7196 27.7614 80.7036L87.4688 64.3116C91.1695 63.2956 93.3459 59.472 92.3299 55.7713C91.3138 52.0708 87.4902 49.8945 83.7895 50.9105Z" fill="white"/>
<path d="M72.1406 67.3649C71.9598 67.4145 71.7812 67.4594 71.6049 67.4996C69.4156 67.9966 67.8341 67.7088 66.7058 67.1344C64.0428 69.4788 60.5307 71.0966 58.5984 70.1113C57.8686 69.7394 56.7601 68.7294 57.5338 66.1464C58.1608 64.0532 58.0022 62.4624 57.1392 62.1878C56.0953 61.8557 54.0257 63.0166 53.159 65.5904C52.4747 67.6226 50.8431 69.8791 48.7945 71.6265C47.7383 72.5274 45.0349 74.5598 42.7466 73.9762C41.5622 73.6742 39.698 72.4701 40.5214 67.7975C40.6216 67.2287 40.5484 66.9658 40.5149 66.9184C40.0176 66.5827 36.8982 67.5794 34.0777 70.3693C32.281 72.1466 31.497 73.8618 32.0803 74.7388C32.2586 75.0137 32.3213 75.3479 32.2548 75.6688C32.1883 75.9897 31.998 76.2715 31.7251 76.453C31.4522 76.6345 31.1188 76.7011 30.7972 76.6384C30.4755 76.5757 30.1915 76.3887 30.0068 76.118C28.8145 74.3254 29.352 71.9603 31.5202 69.4582C33.9211 66.6873 38.887 63.3894 41.5856 64.6742C42.2799 65.0045 43.3833 65.9059 42.9738 68.2297C42.6475 70.081 42.8035 71.4205 43.3617 71.5627C44.9725 71.9742 49.5628 68.467 50.7989 64.7957C51.3795 63.0714 52.4359 61.6067 53.7737 60.6709C55.127 59.7244 56.6287 59.4122 57.8942 59.8145C59.7197 60.3951 61.2103 62.5511 59.9194 66.8608C59.7268 67.5038 59.7552 67.8103 59.776 67.9118C60.4028 68.1235 62.7123 67.2477 64.8108 65.4902C63.9938 64.3364 63.5679 62.787 63.6333 61.1635C63.7022 59.4504 64.2932 57.9448 65.2142 57.1362C66.667 55.8607 68.2775 56.6121 69.2153 57.6429C70.9838 59.5866 70.798 62.2733 68.7054 65.0143C68.6646 65.0679 68.623 65.1215 68.5807 65.175C72.3037 66.0215 78.6766 61.2586 81.3779 59.0516C81.6336 58.8427 81.9619 58.7439 82.2905 58.7769C82.6191 58.81 82.9211 58.9723 83.13 59.228C83.339 59.4838 83.4377 59.8121 83.4047 60.1406C83.3716 60.4692 83.2093 60.7712 82.9536 60.9802C78.7714 64.3969 75.1375 66.5421 72.1406 67.3649ZM66.9185 58.9613C66.7161 59.0595 66.2182 59.7979 66.1296 61.1126C66.0742 61.9343 66.1955 62.8823 66.6032 63.6617C66.6495 63.603 66.6953 63.5439 66.7406 63.4843C67.6587 62.2758 68.5135 60.5721 67.3734 59.3189C67.1192 59.0396 66.9621 58.9748 66.9185 58.9613Z" fill="#009FF5"/>
</g>
<defs>
<clipPath id="clip0_148_1889">
<rect width="85" height="85" fill="white" transform="translate(0 23.1795) rotate(-15.3517)"/>
</clipPath>
</defs>
</svg>
