<svg width="17" height="17" viewBox="0 0 17 17" fill="none" xmlns="http://www.w3.org/2000/svg">
<path d="M3.74434 10.0321L7.449 10.0673C7.49334 10.0681 7.53673 10.0802 7.57514 10.1024C7.61354 10.1245 7.64569 10.1561 7.6686 10.194L9.55135 13.3848C9.58029 13.4331 9.62417 13.4706 9.67634 13.4917C9.72852 13.5128 9.78615 13.5164 9.84051 13.5018C9.89488 13.4872 9.94301 13.4554 9.97764 13.411C10.0123 13.3666 10.0315 13.3122 10.0324 13.2559L10.0676 9.55125C10.0684 9.50691 10.0805 9.46351 10.1027 9.42511C10.1248 9.38671 10.1564 9.35456 10.1943 9.33165L13.3851 7.44889C13.4334 7.41996 13.4709 7.37608 13.492 7.32391C13.5131 7.27173 13.5167 7.2141 13.5021 7.15974C13.4875 7.10537 13.4557 7.05723 13.4113 7.02261C13.3669 6.98798 13.3125 6.96874 13.2562 6.96782L9.55154 6.93269C9.50721 6.93184 9.46381 6.91976 9.42541 6.89759C9.38701 6.87542 9.35485 6.84387 9.33195 6.8059L7.44919 3.61514C7.42025 3.56687 7.37638 3.52933 7.3242 3.50822C7.27203 3.48711 7.2144 3.48357 7.16004 3.49814C7.10567 3.51271 7.05753 3.54459 7.0229 3.58896C6.98828 3.63333 6.96904 3.68777 6.96812 3.74404L6.93298 7.4487C6.93214 7.49304 6.92006 7.53644 6.89789 7.57484C6.87572 7.61324 6.84417 7.6454 6.8062 7.6683L3.61544 9.55106C3.56716 9.57999 3.52963 9.62387 3.50852 9.67604C3.48741 9.72822 3.48387 9.78585 3.49844 9.84021C3.51301 9.89458 3.54489 9.94272 3.58926 9.97734C3.63362 10.012 3.68807 10.0312 3.74434 10.0321Z" fill="#F1F1F1" fill-opacity="0.63" stroke="#F1F1F1" stroke-opacity="0.63" stroke-width="0.125" stroke-linecap="round" stroke-linejoin="round"/>
</svg>
