<svg width="100" height="100" viewBox="0 0 100 100" fill="none" xmlns="http://www.w3.org/2000/svg">
<path d="M22.0236 59.0129L43.8157 59.2196C44.0765 59.2246 44.3318 59.2956 44.5577 59.426C44.7836 59.5564 44.9727 59.742 45.1074 59.9654L56.1825 78.7346C56.3527 79.0185 56.6108 79.2393 56.9177 79.3635C57.2246 79.4876 57.5636 79.5085 57.8834 79.4228C58.2032 79.3371 58.4864 79.1496 58.6901 78.8886C58.8938 78.6276 59.0069 78.3073 59.0123 77.9763L59.219 56.1842C59.224 55.9234 59.295 55.6681 59.4254 55.4422C59.5559 55.2163 59.7414 55.0272 59.9648 54.8924L78.734 43.8174C79.0179 43.6472 79.2387 43.3891 79.3629 43.0822C79.4871 42.7753 79.5079 42.4363 79.4222 42.1165C79.3365 41.7967 79.149 41.5135 78.888 41.3098C78.627 41.1061 78.3068 40.993 77.9757 40.9875L56.1836 40.7809C55.9228 40.7759 55.6675 40.7049 55.4416 40.5744C55.2157 40.444 55.0266 40.2585 54.8919 40.0351L43.8168 21.2659C43.6466 20.9819 43.3885 20.7612 43.0816 20.637C42.7747 20.5128 42.4357 20.492 42.1159 20.5777C41.7961 20.6634 41.5129 20.8509 41.3092 21.1119C41.1055 21.3729 40.9924 21.6931 40.987 22.0241L40.7803 43.8163C40.7753 44.0771 40.7043 44.3323 40.5739 44.5582C40.4434 44.7841 40.2579 44.9733 40.0345 45.108L21.2653 56.1831C20.9814 56.3533 20.7606 56.6114 20.6364 56.9183C20.5122 57.2252 20.4914 57.5642 20.5771 57.884C20.6628 58.2038 20.8503 58.4869 21.1113 58.6906C21.3723 58.8943 21.6926 59.0075 22.0236 59.0129Z" fill="#FF8B2A" fill-opacity="0.5" stroke="#FF8B2A" stroke-opacity="0.5" stroke-width="0.125" stroke-linecap="round" stroke-linejoin="round"/>
</svg>
