<svg width="80" height="80" viewBox="0 0 80 80" fill="none" xmlns="http://www.w3.org/2000/svg">
<g clip-path="url(#clip0_148_1853)">
<path d="M21.299 7.48957C17.2136 8.06355 13.5235 10.237 11.0405 13.5317C8.55746 16.8264 7.48499 20.9726 8.05897 25.058L10.2232 40.4623L14.0742 39.9213L11.91 24.517C11.4796 21.4529 12.2839 18.3433 14.1462 15.8722C16.0084 13.4012 18.776 11.7711 21.8401 11.3406C24.9042 10.9102 28.0138 11.7145 30.4849 13.5768C32.9559 15.439 34.586 18.2066 35.0164 21.2707L37.1806 36.675L41.0317 36.1339L38.8675 20.7296C38.2935 16.6442 36.1201 12.9541 32.8254 10.4711C29.5307 7.98806 25.3845 6.91559 21.299 7.48957Z" fill="#F4900C"/>
<path d="M4.20801 25.5991L8.60012 28.9091L11.9101 24.517L16.3023 27.827L19.6123 23.4349L24.0044 26.7449L27.3144 22.3528L31.7065 25.6628L35.0165 21.2707L39.4087 24.5807L42.7187 20.1886L48.9407 64.4759L10.4301 69.8864L4.20801 25.5991Z" fill="#FF8B2A"/>
<path d="M49.6091 13.3299C45.5236 13.9039 41.8335 16.0773 39.3505 19.372C36.8675 22.6668 35.795 26.8129 36.369 30.8984L38.5332 46.3026L42.3843 45.7616L40.2201 30.3573C39.7896 27.2932 40.594 24.1836 42.4562 21.7126C44.3185 19.2415 47.0861 17.6115 50.1502 17.181C53.2143 16.7505 56.3239 17.5548 58.7949 19.4171C61.266 21.2793 62.896 24.0469 63.3265 27.111L65.4907 42.5153L69.3418 41.9742L67.1776 26.57C66.6036 22.4845 64.4302 18.7944 61.1354 16.3114C57.8407 13.8284 53.6946 12.7559 49.6091 13.3299Z" fill="#FFCC4D"/>
<path d="M32.5176 31.4395L36.9097 34.7495L40.2197 30.3574L44.6118 33.6674L47.9218 29.2753L52.314 32.5853L55.624 28.1932L60.0161 31.5032L63.3261 27.1111L67.7182 30.4211L71.0283 26.029L77.2503 70.3162L38.7396 75.7267L32.5176 31.4395Z" fill="#006ED3"/>
</g>
<defs>
<clipPath id="clip0_148_1853">
<rect width="70" height="70" fill="white" transform="translate(0.118164 10.4653) rotate(-7.99732)"/>
</clipPath>
</defs>
</svg>
