<svg width="289" height="106" viewBox="0 0 289 106" fill="none" xmlns="http://www.w3.org/2000/svg">
<rect y="20.8779" width="282.691" height="85.1996" rx="4" transform="rotate(-4.23538 0 20.8779)" fill="#FF8B2A"/>
<path d="M61.1385 72.9902L59.4607 50.3322L50.5251 50.9939L50.1352 45.7283L74.4686 43.9264L74.8585 49.192L65.923 49.8537L67.6008 72.5117L61.1385 72.9902ZM79.1071 71.6596L77.5179 50.1984L83.4616 49.7583L83.9106 55.8217L82.943 54.1285C83.469 52.5654 84.4081 51.346 85.7605 50.4704C87.1109 49.5682 88.7967 49.0423 90.8178 48.8927L91.2432 54.6369C90.9753 54.63 90.7349 54.6344 90.5222 54.6502C90.3075 54.6394 90.0804 54.6428 89.8411 54.6605C88.1391 54.7866 86.7926 55.381 85.8017 56.4437C84.8355 57.4779 84.4282 59.0188 84.5798 61.0666L85.3301 71.1988L79.1071 71.6596ZM96.1698 70.3961L94.5806 48.9349L100.804 48.4741L102.393 69.9353L96.1698 70.3961ZM97.4705 45.7127C96.327 45.7974 95.3716 45.5339 94.6043 44.9222C93.837 44.3105 93.417 43.5127 93.3441 42.5287C93.2712 41.5447 93.5692 40.6937 94.238 39.9757C94.9068 39.2577 95.813 38.8564 96.9565 38.7717C98.1001 38.687 99.0545 38.9372 99.8198 39.5223C100.583 40.0808 101.001 40.852 101.074 41.836C101.151 42.8731 100.856 43.764 100.189 44.5086C99.5468 45.2247 98.6406 45.626 97.4705 45.7127ZM105.456 69.7085L114.136 56.3911L114.27 59.8306L104.146 48.2266L111.127 47.7097L117.544 55.2964L114.917 55.5712L120.341 47.0273L126.963 46.537L118.609 59.389L118.361 56.0381L128.871 67.9746L121.811 68.4974L115.075 60.4127L117.695 60.5797L112.237 69.2063L105.456 69.7085ZM143.628 66.8818L141.561 38.9583L146.906 38.5624L160.253 57.3882L157.42 57.598L167.649 37.0264L172.955 36.6335L175.102 64.5512L169.039 65.0002L167.619 46.3741L168.736 46.2914L160.563 62.6597L157.651 62.8754L146.956 47.9043L148.312 47.8038L149.692 66.4328L143.628 66.8818ZM194.452 63.1183L194.142 58.9298L193.675 58.0418L193.12 50.5423C193.021 49.2127 192.532 48.206 191.653 47.5224C190.8 46.8369 189.536 46.5561 187.86 46.6802C186.717 46.7649 185.6 47.0347 184.511 47.4898C183.446 47.9162 182.551 48.4638 181.825 49.1326L179.269 44.9499C180.378 44.0389 181.74 43.2962 183.356 42.7221C184.971 42.1479 186.63 41.7978 188.332 41.6717C191.603 41.4295 194.2 42.0127 196.122 43.4212C198.045 44.8297 199.127 47.1695 199.369 50.4405L200.276 62.687L194.452 63.1183ZM187.934 63.9219C186.258 64.0459 184.802 63.873 183.564 63.4032C182.324 62.9067 181.348 62.1902 180.637 61.2534C179.926 60.3167 179.525 59.2367 179.434 58.0134C179.34 56.7369 179.563 55.5973 180.104 54.5946C180.671 53.59 181.613 52.7715 182.93 52.1392C184.245 51.4803 185.993 51.0701 188.173 50.9086L193.878 50.4862L194.147 54.1163L189.12 54.4885C187.658 54.5968 186.665 54.911 186.142 55.431C185.645 55.9491 185.424 56.5671 185.477 57.2852C185.536 58.083 185.889 58.6986 186.536 59.132C187.208 59.5368 188.089 59.6989 189.179 59.6181C190.217 59.5413 191.13 59.2331 191.919 58.6933C192.706 58.127 193.25 57.3513 193.551 56.3664L194.721 59.1676C194.372 60.584 193.625 61.6955 192.481 62.5022C191.338 63.3088 189.822 63.782 187.934 63.9219ZM205.908 62.27L204.319 40.8087L210.263 40.3686L210.712 46.432L209.744 44.7388C210.27 43.1757 211.209 41.9564 212.562 41.0808C213.912 40.1786 215.598 39.6527 217.619 39.503L218.044 45.2473C217.777 45.2404 217.536 45.2448 217.323 45.2605C217.109 45.2497 216.882 45.2531 216.642 45.2709C214.94 45.3969 213.594 45.9913 212.603 47.054C211.637 48.0882 211.229 49.6292 211.381 51.6769L212.131 61.8092L205.908 62.27ZM232.472 60.6238C229.945 60.8109 227.93 60.3184 226.426 59.1462C224.92 57.9475 224.073 56.0716 223.884 53.5186L222.489 34.6902L228.712 34.2294L230.101 52.978C230.168 53.8822 230.459 54.5692 230.975 55.0391C231.489 55.4823 232.159 55.6734 232.983 55.6124C233.967 55.5395 234.785 55.2115 235.437 54.6285L237.438 58.8924C236.833 59.3917 236.087 59.7946 235.201 60.1009C234.339 60.3786 233.429 60.5529 232.472 60.6238ZM219.92 44.9479L219.565 40.161L234.445 39.0592L234.799 43.8461L219.92 44.9479Z" fill="#F1F1F1"/>
</svg>
