<svg width="288" height="121" viewBox="0 0 288 121" fill="none" xmlns="http://www.w3.org/2000/svg">
<path d="M215 21.9846C173.802 12.0175 87.519 4.97685 33.1791 28.8981C-34.7457 58.7996 23.4061 101.248 66.8167 111.713C110.227 122.179 224.186 124.583 254.829 107.639C285.472 90.6945 285.298 64.9151 267.933 49.9643C250.569 35.0135 216.093 15.9297 164 5.46418C111.907 -5.00137 12.7659 2.98359 4.08378 28.8981C-4.59834 54.8126 5.47621 74.7407 28.9691 87.698C52.462 100.655 132.768 107.639 178.732 107.639C224.697 107.639 287 98.7867 287 74.9643C287 52.0397 260.964 30.4573 215 21.9846Z" stroke="#006ED3" stroke-width="2"/>
</svg>
