<svg width="247" height="117" viewBox="0 0 247 117" fill="none" xmlns="http://www.w3.org/2000/svg">
<path d="M179.806 20.2834C145.655 10.6411 74.5577 3.04369 29.5117 26.1851C-26.7958 55.1119 21.474 99.1501 57.46 109.274C93.446 119.399 187.85 118.751 213.252 102.359C238.654 85.967 241.474 61.8845 227.08 47.4211C212.685 32.9577 180.653 16.0606 137.47 5.9362C94.2866 -4.18818 17.1509 5.93616 5.39261 26.1851C-7.43766 48.2802 10.0367 75.2041 29.5116 87.7391C48.9864 100.274 112.068 102.359 150.171 102.359C188.273 102.359 246 96.478 246 73.4321C246 51.2549 217.909 28.4798 179.806 20.2834Z" stroke="#FF8B2A" stroke-width="2"/>
</svg>
