<svg width="40" height="40" viewBox="0 0 40 40" fill="none" xmlns="http://www.w3.org/2000/svg">
<path d="M40 20.0007C40 30.102 32.5124 38.4529 22.7853 39.808C21.8758 39.9341 20.9452 40 20.0007 40C18.9104 40 17.8398 39.9131 16.7971 39.7449C7.27324 38.2118 0 29.9548 0 20.0007C0 8.95491 8.95491 0 19.9993 0C31.0437 0 40 8.95491 40 20.0007Z" fill="#1877F2"/>
<path d="M22.7853 16.0587V20.4157H28.1751L27.3216 26.2847H22.7853V39.8068C21.8758 39.9329 20.9453 39.9988 20.0008 39.9988C18.9105 39.9988 17.8398 39.9119 16.7972 39.7437V26.2847H11.8264V20.4157H16.7972V15.0848C16.7972 11.7775 19.478 9.09521 22.7867 9.09521V9.09802C22.7965 9.09802 22.8049 9.09521 22.8148 9.09521H28.1765V14.1711H24.673C23.6318 14.1711 22.7867 15.0161 22.7867 16.0573L22.7853 16.0587Z" fill="white"/>
</svg>
