<svg width="40" height="40" viewBox="0 0 40 40" fill="none" xmlns="http://www.w3.org/2000/svg">
<g id="Group">
<path id="Vector" d="M20.0455 0H19.9545C8.93392 0 0 8.93391 0 19.9545V20.0455C0 31.0661 8.93392 40 19.9545 40H20.0455C31.0661 40 40 31.0661 40 20.0455V19.9545C40 8.93391 31.0661 0 20.0455 0Z" fill="url(#paint0_linear_413_404)"/>
<g id="Group_2">
<path id="Vector_2" d="M26.1894 8.1377H13.8123C10.3929 8.1377 7.61108 10.9195 7.61108 14.3389V25.6621C7.61108 29.0815 10.3929 31.8633 13.8123 31.8633H26.1894C29.6088 31.8633 32.3905 29.0815 32.3905 25.6621V14.3389C32.3905 10.9195 29.6088 8.1377 26.1894 8.1377ZM9.79866 14.3389C9.79866 12.1261 11.5995 10.3253 13.8123 10.3253H26.1894C28.4022 10.3253 30.203 12.1261 30.203 14.3389V25.6621C30.203 27.8749 28.4022 29.6757 26.1894 29.6757H13.8123C11.5995 29.6757 9.79866 27.8749 9.79866 25.6621V14.3389Z" fill="white"/>
<path id="Vector_3" d="M20.0008 25.7672C23.1806 25.7672 25.7689 23.1803 25.7689 19.9991C25.7689 16.8179 23.182 14.231 20.0008 14.231C16.8196 14.231 14.2327 16.8179 14.2327 19.9991C14.2327 23.1803 16.8196 25.7672 20.0008 25.7672ZM20.0008 16.4199C21.9754 16.4199 23.5814 18.0259 23.5814 20.0005C23.5814 21.9751 21.9754 23.5811 20.0008 23.5811C18.0262 23.5811 16.4202 21.9751 16.4202 20.0005C16.4202 18.0259 18.0262 16.4199 20.0008 16.4199Z" fill="white"/>
<path id="Vector_4" d="M26.3029 15.163C27.1592 15.163 27.8571 14.4665 27.8571 13.6088C27.8571 12.7512 27.1606 12.0547 26.3029 12.0547C25.4453 12.0547 24.7488 12.7512 24.7488 13.6088C24.7488 14.4665 25.4453 15.163 26.3029 15.163Z" fill="white"/>
</g>
</g>
<defs>
<linearGradient id="paint0_linear_413_404" x1="5.84381" y1="34.1562" x2="34.1562" y2="5.84522" gradientUnits="userSpaceOnUse">
<stop stop-color="#FAAD4F"/>
<stop offset="0.35" stop-color="#DD2A7B"/>
<stop offset="0.62" stop-color="#9537B0"/>
<stop offset="1" stop-color="#515BD4"/>
</linearGradient>
</defs>
</svg>
