<svg width="62" height="62" viewBox="0 0 62 62" fill="none" xmlns="http://www.w3.org/2000/svg">
<circle cx="30.585" cy="30.585" r="30.5" transform="rotate(-180 30.585 30.585)" fill="#0A42B6"/>
<path d="M34.1455 39.6311C34.4267 39.3498 34.5846 38.9684 34.5846 38.5706C34.5846 38.1729 34.4267 37.7914 34.1455 37.5101L26.7205 30.0851L34.1455 22.6601C34.4187 22.3772 34.5699 21.9983 34.5665 21.605C34.563 21.2117 34.4053 20.8355 34.1272 20.5574C33.8491 20.2793 33.4729 20.1215 33.0796 20.1181C32.6863 20.1147 32.3074 20.2659 32.0245 20.5391L23.539 29.0246C23.2578 29.3059 23.0998 29.6874 23.0998 30.0851C23.0998 30.4829 23.2578 30.8643 23.539 31.1456L32.0245 39.6311C32.3057 39.9123 32.6872 40.0703 33.085 40.0703C33.4827 40.0703 33.8642 39.9123 34.1455 39.6311Z" fill="#F1F1F1"/>
</svg>
