<svg width="40" height="40" viewBox="0 0 40 40" fill="none" xmlns="http://www.w3.org/2000/svg">
<g id="Group">
<path id="Vector" d="M20.0455 0H19.9545C8.93393 0 0 8.93392 0 19.9545V20.0455C0 31.0661 8.93393 40 19.9545 40H20.0455C31.0661 40 40 31.0661 40 20.0455V19.9545C40 8.93392 31.0661 0 20.0455 0Z" fill="#007EBB"/>
<g id="Group_2">
<path id="Vector_2" d="M9.53921 13.2963C9.01229 12.8072 8.75024 12.2018 8.75024 11.4815C8.75024 10.7611 9.01369 10.1291 9.53921 9.63863C10.0661 9.14954 10.7444 8.9043 11.5754 8.9043C12.4065 8.9043 13.0581 9.14954 13.5836 9.63863C14.1106 10.1277 14.3726 10.7429 14.3726 11.4815C14.3726 12.22 14.1092 12.8072 13.5836 13.2963C13.0567 13.7854 12.3882 14.0306 11.5754 14.0306C10.7626 14.0306 10.0661 13.7854 9.53921 13.2963ZM13.9298 16.1019V31.0968H9.19167V16.1019H13.9298Z" fill="#FEFFFC"/>
<path id="Vector_3" d="M29.7025 17.5835C30.7354 18.7046 31.2511 20.2434 31.2511 22.2025V30.8323H26.7512V22.8107C26.7512 21.8227 26.4948 21.0548 25.9833 20.5082C25.4718 19.9617 24.7823 19.687 23.919 19.687C23.0558 19.687 22.3662 19.9603 21.8547 20.5082C21.3432 21.0548 21.0868 21.8227 21.0868 22.8107V30.8323H16.5603V16.0602H21.0868V18.0194C21.545 17.3663 22.1631 16.8506 22.9394 16.4708C23.7158 16.091 24.5889 15.9019 25.56 15.9019C27.2894 15.9019 28.6711 16.4624 29.7025 17.5835Z" fill="#FEFFFC"/>
</g>
</g>
</svg>
