<svg width="61" height="62" viewBox="0 0 61 62" fill="none" xmlns="http://www.w3.org/2000/svg">
<circle cx="30.5" cy="31.2139" r="30.5" fill="#0A42B6"/>
<path d="M26.9395 22.1677C26.6583 22.449 26.5003 22.8304 26.5003 23.2282C26.5003 23.6259 26.6583 24.0074 26.9395 24.2887L34.3645 31.7137L26.9395 39.1387C26.6663 39.4216 26.5151 39.8005 26.5185 40.1938C26.5219 40.5871 26.6796 40.9633 26.9578 41.2414C27.2359 41.5195 27.6121 41.6773 28.0054 41.6807C28.3987 41.6841 28.7776 41.5329 29.0605 41.2597L37.546 32.7742C37.8272 32.4929 37.9852 32.1114 37.9852 31.7137C37.9852 31.3159 37.8272 30.9345 37.546 30.6532L29.0605 22.1677C28.7792 21.8865 28.3977 21.7285 28 21.7285C27.6022 21.7285 27.2208 21.8865 26.9395 22.1677Z" fill="#F1F1F1"/>
</svg>
