<svg width="55" height="55" viewBox="0 0 55 55" fill="none" xmlns="http://www.w3.org/2000/svg">
<path d="M24.0628 45.8337C24.0628 46.7453 24.425 47.6197 25.0696 48.2643C25.7143 48.909 26.5886 49.2712 27.5003 49.2712C28.412 49.2712 29.2864 48.909 29.931 48.2643C30.5757 47.6197 30.9378 46.7453 30.9378 45.8337V30.9378H45.8337C46.7453 30.9378 47.6197 30.5757 48.2643 29.931C48.909 29.2864 49.2712 28.412 49.2712 27.5003C49.2712 26.5886 48.909 25.7143 48.2643 25.0696C47.6197 24.425 46.7453 24.0628 45.8337 24.0628H30.9378V9.16699C30.9378 8.25531 30.5757 7.38097 29.931 6.73631C29.2864 6.09166 28.412 5.72949 27.5003 5.72949C26.5886 5.72949 25.7143 6.09166 25.0696 6.73631C24.425 7.38097 24.0628 8.25531 24.0628 9.16699V24.0628H9.16699C8.25531 24.0628 7.38097 24.425 6.73631 25.0696C6.09166 25.7143 5.72949 26.5886 5.72949 27.5003C5.72949 28.412 6.09166 29.2864 6.73631 29.931C7.38097 30.5757 8.25531 30.9378 9.16699 30.9378H24.0628V45.8337Z" fill="#F1F1F1"/>
</svg>
