<svg width="18" height="18" viewBox="0 0 18 18" fill="none" xmlns="http://www.w3.org/2000/svg">
<path d="M7.5 8.25H4.5C4.30109 8.25 4.11032 8.17098 3.96967 8.03033C3.82902 7.88968 3.75 7.69891 3.75 7.5V5.25C3.75 5.05109 3.82902 4.86032 3.96967 4.71967C4.11032 4.57902 4.30109 4.5 4.5 4.5H6.75C6.94891 4.5 7.13968 4.57902 7.28033 4.71967C7.42098 4.86032 7.5 5.05109 7.5 5.25V9.75C7.5 11.75 6.5 13 4.5 13.5M14.25 8.25H11.25C11.0511 8.25 10.8603 8.17098 10.7197 8.03033C10.579 7.88968 10.5 7.69891 10.5 7.5V5.25C10.5 5.05109 10.579 4.86032 10.7197 4.71967C10.8603 4.57902 11.0511 4.5 11.25 4.5H13.5C13.6989 4.5 13.8897 4.57902 14.0303 4.71967C14.171 4.86032 14.25 5.05109 14.25 5.25V9.75C14.25 11.75 13.25 13 11.25 13.5" stroke="#F1F1F1" stroke-width="1.7" stroke-linecap="round" stroke-linejoin="round"/>
</svg>
