<svg width="40" height="40" viewBox="0 0 40 40" fill="none" xmlns="http://www.w3.org/2000/svg">
<g id="Group">
<path id="Vector" d="M39.9972 20.0007C39.9972 30.102 32.5098 38.4529 22.7831 39.808C21.8736 39.9341 20.9431 40 19.9986 40C18.9083 40 17.8377 39.9131 16.7951 39.7449C7.27298 38.2118 0 29.9548 0 20.0007C0 8.95491 8.95459 0 20 0C31.0454 0 40 8.95491 40 20.0007H39.9972Z" fill="#1C1C1B"/>
<g id="layer1">
<path id="path1009" d="M8.11093 8.82031L17.3346 21.1526L8.05347 31.1796H10.1429L18.2693 22.4012L24.8346 31.1796H31.9436L22.2014 18.1536L30.8407 8.82031H28.7513L21.2681 16.905L15.2214 8.82031H8.11231H8.11093ZM11.1827 10.359H14.4478L28.8691 29.6408H25.6039L11.1827 10.359Z" fill="white"/>
</g>
</g>
</svg>
