<svg width="30" height="30" viewBox="0 0 30 30" fill="none" xmlns="http://www.w3.org/2000/svg">
<path d="M14.9996 15.9383C15.5178 15.9383 15.9378 15.5182 15.9378 15.0001C15.9378 14.482 15.5178 14.062 14.9996 14.062C14.4815 14.062 14.0615 14.482 14.0615 15.0001C14.0615 15.5182 14.4815 15.9383 14.9996 15.9383Z" stroke="#F1F1F1" stroke-width="2" stroke-linecap="round" stroke-linejoin="round"/>
<path d="M15 20.245C17.8967 20.245 20.245 17.8967 20.245 15C20.245 12.1033 17.8967 9.755 15 9.755C12.1033 9.755 9.755 12.1033 9.755 15C9.755 17.8967 12.1033 20.245 15 20.245Z" stroke="#F1F1F1" stroke-width="2" stroke-linecap="round" stroke-linejoin="round"/>
<path d="M15 23.7088C20.5625 23.7088 27.1875 18.5963 27.1875 15C27.1875 11.4038 20.5625 6.29126 15 6.29126M15 23.7088C9.4375 23.7088 2.8125 18.5963 2.8125 15C2.8125 11.4038 9.4375 6.29126 15 6.29126" stroke="#F1F1F1" stroke-width="2" stroke-linecap="round" stroke-linejoin="round"/>
</svg>
