<svg width="132" height="140" viewBox="0 0 132 140" fill="none" xmlns="http://www.w3.org/2000/svg">
<circle cx="16" cy="3" r="4" fill="#F1F1F1" fill-opacity="0.81"/>
<circle cx="16" cy="25" r="4" fill="#F1F1F1" fill-opacity="0.81"/>
<circle cx="16" cy="47" r="4" fill="#F1F1F1" fill-opacity="0.81"/>
<circle cx="16" cy="69" r="4" fill="#F1F1F1" fill-opacity="0.81"/>
<circle cx="16" cy="91" r="4" fill="#F1F1F1" fill-opacity="0.81"/>
<circle cx="39" cy="3" r="4" fill="#F1F1F1" fill-opacity="0.81"/>
<circle cx="39" cy="25" r="4" fill="#F1F1F1" fill-opacity="0.81"/>
<circle cx="39" cy="47" r="4" fill="#F1F1F1" fill-opacity="0.81"/>
<circle cx="39" cy="69" r="4" fill="#F1F1F1" fill-opacity="0.81"/>
<circle cx="39" cy="91" r="4" fill="#F1F1F1" fill-opacity="0.81"/>
<circle cx="62" cy="3" r="4" fill="#F1F1F1" fill-opacity="0.81"/>
<circle cx="62" cy="25" r="4" fill="#F1F1F1" fill-opacity="0.81"/>
<circle cx="62" cy="47" r="4" fill="#F1F1F1" fill-opacity="0.81"/>
<circle cx="62" cy="69" r="4" fill="#F1F1F1" fill-opacity="0.81"/>
<circle cx="62" cy="91" r="4" fill="#F1F1F1" fill-opacity="0.81"/>
<circle cx="85" cy="3" r="4" fill="#F1F1F1" fill-opacity="0.81"/>
<circle cx="85" cy="25" r="4" fill="#F1F1F1" fill-opacity="0.81"/>
<circle cx="85" cy="47" r="4" fill="#F1F1F1" fill-opacity="0.81"/>
<circle cx="85" cy="69" r="4" fill="#F1F1F1" fill-opacity="0.81"/>
<circle cx="85" cy="91" r="4" fill="#F1F1F1" fill-opacity="0.81"/>
<circle cx="108" cy="3" r="4" fill="#F1F1F1" fill-opacity="0.81"/>
<circle cx="108" cy="25" r="4" fill="#F1F1F1" fill-opacity="0.81"/>
<circle cx="108" cy="47" r="4" fill="#F1F1F1" fill-opacity="0.81"/>
<circle cx="108" cy="69" r="4" fill="#F1F1F1" fill-opacity="0.81"/>
<circle cx="108" cy="91" r="4" fill="#F1F1F1" fill-opacity="0.81"/>
<circle cx="131" cy="3" r="4" fill="#F1F1F1" fill-opacity="0.81"/>
<circle cx="131" cy="25" r="4" fill="#F1F1F1" fill-opacity="0.81"/>
<circle cx="131" cy="47" r="4" fill="#F1F1F1" fill-opacity="0.81"/>
<circle cx="131" cy="69" r="4" fill="#F1F1F1" fill-opacity="0.81"/>
<circle cx="131" cy="91" r="4" fill="#F1F1F1" fill-opacity="0.81"/>
<circle cx="16" cy="114" r="4" fill="#F1F1F1" fill-opacity="0.81"/>
<circle cx="16" cy="136" r="4" fill="#F1F1F1" fill-opacity="0.81"/>
<circle cx="39" cy="114" r="4" fill="#F1F1F1" fill-opacity="0.81"/>
<circle cx="39" cy="136" r="4" fill="#F1F1F1" fill-opacity="0.81"/>
<circle cx="62" cy="114" r="4" fill="#F1F1F1" fill-opacity="0.81"/>
<circle cx="62" cy="136" r="4" fill="#F1F1F1" fill-opacity="0.81"/>
<circle cx="85" cy="114" r="4" fill="#F1F1F1" fill-opacity="0.81"/>
<circle cx="85" cy="136" r="4" fill="#F1F1F1" fill-opacity="0.81"/>
<circle cx="108" cy="114" r="4" fill="#F1F1F1" fill-opacity="0.81"/>
<circle cx="108" cy="136" r="4" fill="#F1F1F1" fill-opacity="0.81"/>
<circle cx="131" cy="114" r="4" fill="#F1F1F1" fill-opacity="0.81"/>
<circle cx="131" cy="136" r="4" fill="#F1F1F1" fill-opacity="0.81"/>
</svg>
