<svg width="125" height="125" viewBox="0 0 125 125" fill="none" xmlns="http://www.w3.org/2000/svg">
<g clip-path="url(#clip0_148_1858)">
<path d="M41.0256 87.4458L89.3397 76.9823L88.8605 64.074L90.4646 63.5919C94.5707 62.3579 99.1338 65.3591 100.523 69.983L100.627 70.3271C102.073 75.1395 99.7247 80.3874 95.4421 81.6745L31.4625 100.902C29.8255 101.394 28.8133 102.945 29.3296 104.662C29.8458 106.38 31.6063 107.385 33.2434 106.893L97.3636 87.6232C104.917 85.3531 109.055 76.7872 106.576 68.5391L106.473 68.1949C104.051 60.1354 96.0729 55.3803 88.6658 57.6064L88.6209 57.6199L88.6221 57.5803C88.9266 57.4144 89.1665 57.151 89.3033 56.8323C89.4401 56.5137 89.4659 56.1583 89.3765 55.8233L89.3423 55.7095C89.2802 55.5048 89.1742 55.3161 89.0315 55.1566C88.8889 54.9971 88.7132 54.8707 88.5166 54.7862L87.3078 22.1207L20.958 42.0605C15.6907 43.6435 12.669 49.2243 14.3069 54.6741L23.5035 79.63C26.2162 87.0279 34.499 88.8558 41.0256 87.4458ZM79.0814 57.2237L74.2451 58.6771L70.6475 46.706L78.4436 44.3631L79.0814 57.2237ZM78.2835 41.1481L69.7481 43.7132L67.0561 34.7558L72.8939 33.008C75.4078 32.2525 77.9313 34.0263 78.0577 36.6183L78.2835 41.1481ZM64.0625 35.6523L66.7553 44.6126L53.6469 48.552L50.9487 39.5737L64.0625 35.6523ZM47.9551 40.4701L50.6542 49.4514L36.8874 53.5887L34.1838 44.5924L47.9551 40.4701ZM31.1901 45.4888L33.8946 54.4881L22.1959 58.0038L20.2384 52.6957C19.6394 50.7025 20.7717 48.6067 22.7768 48.0041L31.1901 45.4888ZM23.2808 60.9408L34.794 57.4808L38.3916 69.4519L27.6176 72.6898L23.2808 60.9408ZM28.6996 75.6277L39.291 72.4447L41.8363 80.9143L39.7536 81.3672C35.6443 82.2432 30.7664 81.2129 29.3812 77.4721L28.6996 75.6277ZM44.9011 80.2543L42.2838 71.5453L56.0506 67.4081L58.9934 77.2004L44.9011 80.2543ZM62.0563 76.5345L59.0433 66.5087L72.1517 62.5693L75.4075 73.4031C75.4309 73.4809 75.4597 73.5549 75.4939 73.6252L62.0563 76.5345ZM78.3823 72.4439L75.1445 61.6699L79.2416 60.4386L79.6801 69.2704C79.7126 69.8625 79.6129 70.4544 79.3885 71.0032C79.164 71.5521 78.8203 72.0442 78.3823 72.4439ZM54.5463 51.5448L67.6547 47.6054L71.2523 59.5765L58.1439 63.5159L54.5463 51.5448ZM37.7868 56.5814L51.5536 52.4442L55.1512 64.4153L41.3844 68.5525L37.7868 56.5814Z" fill="#9B9B9B"/>
<path d="M89.8047 80.008C88.005 80.1214 86.4565 78.7692 86.3866 77.0379L83.9353 15.8514C83.8653 14.1201 85.3097 12.5962 87.1065 12.4837C88.9071 12.3733 90.4565 13.7285 90.5264 15.4597L92.9759 76.6403C93.0549 78.4014 91.6344 79.8856 89.8047 80.008Z" fill="#BEBEBE"/>
<path d="M85.3018 19.461L91.2874 17.6622C92.9334 17.1676 93.8754 15.4161 93.3807 13.77C92.8861 12.124 91.1346 11.182 89.4886 11.6767L83.503 13.4755C81.857 13.9702 80.915 15.7216 81.4096 17.3677C81.9043 19.0137 83.6558 19.9557 85.3018 19.461ZM43.4422 113.618C44.6328 113.26 45.6325 112.444 46.2214 111.349C46.8103 110.254 46.9401 108.97 46.5823 107.779C46.2245 106.589 45.4084 105.589 44.3135 105C43.2186 104.411 41.9346 104.281 40.744 104.639C39.5534 104.997 38.5537 105.813 37.9648 106.908C37.376 108.003 37.2462 109.287 37.604 110.477C37.9618 111.668 38.7779 112.668 39.8728 113.257C40.9677 113.846 42.2516 113.975 43.4422 113.618ZM97.3122 97.4283C98.5028 97.0705 99.5025 96.2544 100.091 95.1595C100.68 94.0646 100.81 92.7806 100.452 91.59C100.094 90.3994 99.2783 89.3997 98.1834 88.8109C97.0885 88.222 95.8046 88.0922 94.614 88.45C93.4234 88.8078 92.4237 89.6239 91.8348 90.7188C91.2459 91.8137 91.1161 93.0976 91.4739 94.2882C91.8317 95.4788 92.6478 96.4785 93.7427 97.0674C94.8376 97.6563 96.1216 97.7861 97.3122 97.4283Z" fill="#006ED3"/>
</g>
<defs>
<clipPath id="clip0_148_1858">
<rect width="100" height="100" fill="white" transform="translate(0.000244141 28.7809) rotate(-16.7268)"/>
</clipPath>
</defs>
</svg>
