<svg width="29" height="29" viewBox="0 0 29 29" fill="none" xmlns="http://www.w3.org/2000/svg">
<path d="M3.48047 21.8094C5.14352 14.4516 8.69651 7.65461 13.7888 2.08937C13.8793 1.99086 13.9893 1.91222 14.1118 1.85843C14.2343 1.80463 14.3667 1.77686 14.5005 1.77686C14.6343 1.77686 14.7666 1.80463 14.8891 1.85843C15.0116 1.91222 15.1216 1.99086 15.2122 2.08937C15.4136 2.30687 15.5795 2.49054 15.71 2.64037C20.5393 8.10392 23.9134 14.6967 25.5205 21.8094C22.899 22.3617 20.2395 22.7152 17.5648 22.8667L15.0406 27.9127C14.9904 28.0129 14.9132 28.0972 14.8179 28.156C14.7225 28.2149 14.6126 28.2461 14.5005 28.2461C14.3884 28.2461 14.2785 28.2149 14.1831 28.156C14.0877 28.0972 14.0106 28.0129 13.9603 27.9127L11.4361 22.8655C8.7614 22.714 6.10193 22.3617 3.48047 21.8094ZM14.5005 18.1191C15.4619 18.1191 16.3839 17.7372 17.0637 17.0574C17.7436 16.3776 18.1255 15.4555 18.1255 14.4941C18.1255 13.5327 17.7436 12.6107 17.0637 11.9309C16.3839 11.251 15.4619 10.8691 14.5005 10.8691C13.5391 10.8691 12.617 11.251 11.9372 11.9309C11.2574 12.6107 10.8755 13.5327 10.8755 14.4941C10.8755 15.4555 11.2574 16.3776 11.9372 17.0574C12.617 17.7372 13.5391 18.1191 14.5005 18.1191Z" fill="#051650"/>
</svg>
